<svg width="15" height="4" viewBox="0 0 15 4" fill="none" xmlns="http://www.w3.org/2000/svg">
<path d="M7.5 3.5C8.32843 3.5 9 2.82843 9 2C9 1.17157 8.32843 0.5 7.5 0.5C6.67157 0.5 6 1.17157 6 2C6 2.82843 6.67157 3.5 7.5 3.5Z" stroke="white" stroke-linecap="round" stroke-linejoin="round"/>
<path d="M12.75 3.25C13.4404 3.25 14 2.69036 14 2C14 1.30964 13.4404 0.75 12.75 0.75C12.0596 0.75 11.5 1.30964 11.5 2C11.5 2.69036 12.0596 3.25 12.75 3.25Z" stroke="white" stroke-linecap="round" stroke-linejoin="round"/>
<path d="M2.25 3.25C2.94036 3.25 3.5 2.69036 3.5 2C3.5 1.30964 2.94036 0.75 2.25 0.75C1.55964 0.75 1 1.30964 1 2C1 2.69036 1.55964 3.25 2.25 3.25Z" stroke="white" stroke-linecap="round" stroke-linejoin="round"/>
</svg>
