<svg width="18" height="14" viewBox="0 0 18 14" fill="none" xmlns="http://www.w3.org/2000/svg">
<path d="M0.24375 5.49062C-0.165625 4.93437 -0.046875 4.15313 0.509375 3.74375L4.46562 0.828125C5.19375 0.290625 6.07812 0 6.98438 0H17C17.5531 0 18 0.446875 18 1V3C18 3.55312 17.5531 4 17 4H15.85L14.4469 5.125C13.7375 5.69375 12.8562 6 11.9469 6H7C6.44688 6 6 5.55312 6 5C6 4.44688 6.44688 4 7 4H9.5C9.775 4 10 3.775 10 3.5C10 3.225 9.775 3 9.5 3H5.73125L1.99063 5.75625C1.43438 6.16563 0.653125 6.04688 0.24375 5.49062ZM17.7563 8.50937C18.1656 9.06562 18.0469 9.84688 17.4906 10.2563L13.5344 13.1719C12.8031 13.7094 11.9219 14 11.0125 14H1C0.446875 14 0 13.5531 0 13V11C0 10.4469 0.446875 10 1 10H2.15L3.55312 8.875C4.2625 8.30625 5.14375 8 6.05312 8H11C11.5531 8 12 8.44687 12 9C12 9.55313 11.5531 10 11 10H8.5C8.225 10 8 10.225 8 10.5C8 10.775 8.225 11 8.5 11H12.2688L16.0094 8.24375C16.5656 7.83437 17.3469 7.95312 17.7563 8.50937Z" fill="url(#paint0_linear_471_467)"/>
<defs>
<linearGradient id="paint0_linear_471_467" x1="0.00941066" y1="7.00211" x2="18.001" y2="7.00211" gradientUnits="userSpaceOnUse">
<stop stop-color="#9E005D"/>
<stop offset="1" stop-color="#FF0000"/>
</linearGradient>
</defs>
</svg>
