<svg width="48" height="48" viewBox="0 0 48 48" fill="none" xmlns="http://www.w3.org/2000/svg">
<rect width="48" height="48" rx="5" fill="url(#paint0_linear_299_389)"/>
<path d="M39.6803 20.6865C39.2091 18.5037 38.2668 16.4238 36.8878 14.6639C35.1411 12.4125 32.5784 10.6298 29.717 10.4698C27.1429 10.3212 24.5917 11.5554 22.8335 13.4296C22.167 14.1496 21.7993 15.8067 23.2817 15.7838C23.7414 15.7838 24.1665 15.5667 24.5917 15.3838C26.6947 14.5267 29.2114 14.7439 31.142 15.9438C29.3608 15.7838 27.5566 15.9781 25.8328 16.4467C25.4881 16.5381 25.1318 16.6524 24.8675 16.9038C24.6147 17.1552 24.4998 17.5895 24.7181 17.8752C24.971 18.2066 25.4651 18.1723 25.8673 18.1037C26.9475 17.9323 28.0392 17.7952 29.1195 17.9552C30.7628 18.1952 32.2337 19.1323 33.5323 20.1722C35.3135 21.6007 36.8993 23.3264 37.8876 25.3834C38.0485 25.7034 38.1864 26.0463 38.4507 26.2977C38.715 26.5491 39.1402 26.6634 39.439 26.4805C39.7378 26.2977 39.8182 25.9091 39.8642 25.5549C40.1055 23.9321 40.0136 22.275 39.6803 20.6865Z" fill="white"/>
<path d="M8.35407 27.1319C9.12401 30.8004 11.1695 34.1831 14.4906 36.1487C15.7087 36.8687 17.0762 37.383 18.4897 37.4287C20.0411 37.4744 21.558 36.9258 22.914 36.1716C23.7184 35.7145 24.4884 35.1659 25.1204 34.4916C25.4077 34.1831 25.672 33.8402 25.7754 33.4403C25.8789 33.0403 25.7984 32.5603 25.4881 32.286C25.2123 32.046 24.7986 32.0003 24.4309 32.0689C24.0632 32.1375 23.7299 32.2974 23.3852 32.446C21.2822 33.2917 18.7885 33.0631 16.8694 31.8746C18.6506 32.0346 20.4433 31.8403 22.167 31.3718C22.5233 31.2803 22.8795 31.1661 23.1323 30.9032C23.3852 30.6404 23.4886 30.1947 23.2588 29.9204C23.0059 29.6233 22.5463 29.6461 22.1556 29.7033C21.1788 29.8518 20.179 29.989 19.1907 29.8975C17.0188 29.6804 15.1341 28.3319 13.5368 26.8462C12.1348 25.5434 10.8478 24.0806 10.0318 22.355C9.90544 22.0922 9.79052 21.8179 9.59517 21.5893C9.39981 21.3722 9.11252 21.2008 8.82522 21.2465C8.27362 21.3265 8.07827 22.0122 8.0323 22.5721C7.94037 24.0921 8.04379 25.6349 8.35407 27.1319Z" fill="white"/>
<path d="M20.7649 8.33273C18.524 8.80128 16.3981 9.77267 14.6054 11.1898C13.1 12.3668 11.8129 13.8639 11.0774 15.6239C9.69842 18.938 10.8131 22.595 13.3758 25.0063C13.6516 25.2577 13.9388 25.5092 14.2951 25.6349C14.6513 25.7606 15.065 25.7606 15.3638 25.5434C15.7315 25.2806 15.8465 24.7892 15.789 24.3435C15.7315 23.8978 15.5247 23.4978 15.3638 23.075C14.5709 21.0408 14.8237 18.6409 15.9959 16.801C15.8235 18.5609 16.0303 20.3551 16.49 22.0693C16.5819 22.4121 16.6968 22.7778 16.9497 23.0293C17.2025 23.2807 17.6392 23.395 17.9265 23.1778C18.2597 22.9264 18.2252 22.435 18.1563 22.0236C17.9839 20.9379 17.846 19.8408 18.0184 18.7552C18.2712 17.0981 19.225 15.6239 20.2937 14.3325C21.7532 12.5726 23.4999 11.0069 25.5569 10.0241C25.8442 9.88695 26.143 9.76124 26.3728 9.53268C26.6027 9.30411 26.7406 8.96127 26.6256 8.66414C26.4763 8.26416 25.9821 8.14988 25.5569 8.09274C23.9826 7.90989 22.3507 8.00131 20.7649 8.33273Z" fill="white"/>
<path d="M27.258 39.4743C29.0507 39.0972 30.7629 38.4 32.3143 37.4172C33.7393 36.5144 35.0263 35.3716 35.9801 33.9774C36.9224 32.5831 37.52 30.9375 37.5545 29.2576C37.589 26.8691 36.4628 24.5378 34.7275 22.8807C34.4173 22.5835 34.0725 22.2978 33.6703 22.1721C33.2681 22.0464 32.7625 22.1036 32.4752 22.4121C32.2224 22.6864 32.1649 23.0978 32.2338 23.4749C32.3028 23.8406 32.4752 24.1835 32.6131 24.5378C33.4635 26.6291 33.2336 29.109 32.0385 31.0175C32.2109 29.2461 32.004 27.4633 31.5329 25.7491C31.4409 25.4063 31.326 25.052 31.0732 24.7892C30.8204 24.5378 30.3837 24.4235 30.0964 24.6406C29.7631 24.892 29.7976 25.3834 29.8666 25.7834C30.0274 26.8577 30.1768 27.9433 30.016 29.0176C29.7746 30.6518 28.8438 32.1146 27.7981 33.3945C26.3616 35.1545 24.6379 36.743 22.5808 37.7144C22.2936 37.8515 21.9833 37.9886 21.742 38.1943C20.8571 38.96 21.6615 39.6457 22.5234 39.7371C24.0863 39.9086 25.6951 39.8171 27.258 39.4743Z" fill="white"/>
<path d="M24.0056 25.772C25.0148 25.772 25.8328 24.9585 25.8328 23.9549C25.8328 22.9514 25.0148 22.1378 24.0056 22.1378C22.9965 22.1378 22.1785 22.9514 22.1785 23.9549C22.1785 24.9585 22.9965 25.772 24.0056 25.772Z" fill="white"/>
<defs>
<linearGradient id="paint0_linear_299_389" x1="0.0250951" y1="24.0072" x2="48.0026" y2="24.0072" gradientUnits="userSpaceOnUse">
<stop stop-color="#9E005D"/>
<stop offset="1" stop-color="#FF0000"/>
</linearGradient>
</defs>
</svg>
