<svg width="19" height="6" viewBox="0 0 19 6" fill="none" xmlns="http://www.w3.org/2000/svg">
<path d="M9.5 5.25C10.0967 5.25 10.669 5.01295 11.091 4.59099C11.5129 4.16903 11.75 3.59674 11.75 3C11.75 2.40326 11.5129 1.83097 11.091 1.40901C10.669 0.987053 10.0967 0.75 9.5 0.75C8.90326 0.75 8.33097 0.987053 7.90901 1.40901C7.48705 1.83097 7.25 2.40326 7.25 3C7.25 3.59674 7.48705 4.16903 7.90901 4.59099C8.33097 5.01295 8.90326 5.25 9.5 5.25ZM2.75 5.25C3.34674 5.25 3.91903 5.01295 4.34099 4.59099C4.76295 4.16903 5 3.59674 5 3C5 2.40326 4.76295 1.83097 4.34099 1.40901C3.91903 0.987053 3.34674 0.75 2.75 0.75C2.15326 0.75 1.58097 0.987053 1.15901 1.40901C0.737053 1.83097 0.5 2.40326 0.5 3C0.5 3.59674 0.737053 4.16903 1.15901 4.59099C1.58097 5.01295 2.15326 5.25 2.75 5.25ZM16.25 5.25C16.8467 5.25 17.419 5.01295 17.841 4.59099C18.2629 4.16903 18.5 3.59674 18.5 3C18.5 2.40326 18.2629 1.83097 17.841 1.40901C17.419 0.987053 16.8467 0.75 16.25 0.75C15.6533 0.75 15.081 0.987053 14.659 1.40901C14.2371 1.83097 14 2.40326 14 3C14 3.59674 14.2371 4.16903 14.659 4.59099C15.081 5.01295 15.6533 5.25 16.25 5.25Z" fill="#232323"/>
</svg>
