<svg width="28" height="29" viewBox="0 0 28 29" fill="none" xmlns="http://www.w3.org/2000/svg">
<path d="M26 16.996H16V26.996C16 27.5264 15.7893 28.0351 15.4142 28.4102C15.0391 28.7853 14.5304 28.996 14 28.996C13.4696 28.996 12.9609 28.7853 12.5858 28.4102C12.2107 28.0351 12 27.5264 12 26.996V16.996H2C1.46957 16.996 0.96086 16.7853 0.585787 16.4102C0.210714 16.0351 0 15.5264 0 14.996C0 14.4656 0.210714 13.9569 0.585787 13.5818C0.96086 13.2067 1.46957 12.996 2 12.996H12V2.996C12 2.46557 12.2107 1.95686 12.5858 1.58179C12.9609 1.20672 13.4696 0.996002 14 0.996002C14.5304 0.996002 15.0391 1.20672 15.4142 1.58179C15.7893 1.95686 16 2.46557 16 2.996V12.996H26C26.5304 12.996 27.0391 13.2067 27.4142 13.5818C27.7893 13.9569 28 14.4656 28 14.996C28 15.5264 27.7893 16.0351 27.4142 16.4102C27.0391 16.7853 26.5304 16.996 26 16.996Z" fill="white"/>
</svg>
