<svg width="20" height="21" viewBox="0 0 20 21" fill="none" xmlns="http://www.w3.org/2000/svg">
<path d="M10.35 7.85C10.25 7.75 10.1333 7.7 10 7.7C9.86667 7.7 9.75 7.75 9.65 7.85L6.85 10.65C6.68333 10.8167 6.64167 11 6.725 11.2C6.80833 11.4 6.96667 11.5 7.2 11.5L12.8 11.5C13.0333 11.5 13.1917 11.4 13.275 11.2C13.3583 11 13.3167 10.8167 13.15 10.65L10.35 7.85ZM10 0.500001C11.3833 0.500001 12.6833 0.762667 13.9 1.288C15.1167 1.81333 16.175 2.52567 17.075 3.425C17.975 4.325 18.6873 5.38333 19.212 6.6C19.7367 7.81667 19.9993 9.11667 20 10.5C20 11.8833 19.7373 13.1833 19.212 14.4C18.6867 15.6167 17.9743 16.675 17.075 17.575C16.175 18.475 15.1167 19.1873 13.9 19.712C12.6833 20.2367 11.3833 20.4993 10 20.5C8.61667 20.5 7.31667 20.2373 6.1 19.712C4.88333 19.1867 3.825 18.4743 2.925 17.575C2.025 16.675 1.31233 15.6167 0.787 14.4C0.261667 13.1833 -0.000668325 11.8833 -8.74228e-07 10.5C-9.95163e-07 9.11667 0.262666 7.81667 0.787999 6.6C1.31333 5.38333 2.02566 4.325 2.925 3.425C3.825 2.525 4.88333 1.81234 6.1 1.287C7.31667 0.761668 8.61667 0.499333 10 0.500001Z" fill="url(#paint0_linear_455_732)"/>
<defs>
<linearGradient id="paint0_linear_455_732" x1="19.9895" y1="10.497" x2="-0.00106979" y2="10.497" gradientUnits="userSpaceOnUse">
<stop stop-color="#9E005D"/>
<stop offset="1" stop-color="#FF0000"/>
</linearGradient>
</defs>
</svg>
