<svg width="12" height="12" viewBox="0 0 12 12" fill="none" xmlns="http://www.w3.org/2000/svg">
<path d="M1.45002 7.71251L5.65002 3.50001C5.70002 3.45001 5.75418 3.41451 5.81252 3.39351C5.87085 3.37251 5.93335 3.36218 6.00002 3.36251C6.06668 3.36251 6.12918 3.37284 6.18752 3.39351C6.24585 3.41418 6.30002 3.44968 6.35002 3.50001L10.5625 7.71251C10.6792 7.82918 10.7375 7.97501 10.7375 8.15001C10.7375 8.32501 10.675 8.47501 10.55 8.60001C10.425 8.72501 10.2792 8.78751 10.1125 8.78751C9.94585 8.78751 9.80002 8.72501 9.67502 8.60001L6.00002 4.92501L2.32502 8.60001C2.20835 8.71668 2.06452 8.77501 1.89352 8.77501C1.72252 8.77501 1.57468 8.71251 1.45002 8.58751C1.32502 8.46251 1.26252 8.31668 1.26252 8.15001C1.26252 7.98334 1.32502 7.83751 1.45002 7.71251Z" fill="#FF0000"/>
</svg>
